<svg width="2076" height="571" viewBox="0 0 2076 571" fill="none" xmlns="http://www.w3.org/2000/svg">
<path d="M1229.5 466L1241.29 502.277H1279.43L1248.57 524.697L1260.36 560.973L1229.5 538.553L1198.64 560.973L1210.43 524.697L1179.57 502.277H1217.71L1229.5 466Z" fill="#FFC51D"/>
<path d="M1396.5 466L1408.29 502.277H1446.43L1415.57 524.697L1427.36 560.973L1396.5 538.553L1365.64 560.973L1377.43 524.697L1346.57 502.277H1384.71L1396.5 466Z" fill="#FFC51D"/>
<path d="M1562.5 466L1574.29 502.277H1612.43L1581.57 524.697L1593.36 560.973L1562.5 538.553L1531.64 560.973L1543.43 524.697L1512.57 502.277H1550.71L1562.5 466Z" fill="#FFC51D"/>
<path d="M1728.5 466L1740.29 502.277H1778.43L1747.57 524.697L1759.36 560.973L1728.5 538.553L1697.64 560.973L1709.43 524.697L1678.57 502.277H1716.71L1728.5 466Z" fill="#FFC51D"/>
<path d="M1895.5 466L1907.29 502.277H1945.43L1914.57 524.697L1926.36 560.973L1895.5 538.553L1864.64 560.973L1876.43 524.697L1845.57 502.277H1883.71L1895.5 466Z" fill="#FFC51D"/>
<path d="M203.759 424.4C182.959 424.4 165.059 420.7 150.059 413.3C135.259 405.9 123.759 395.6 115.559 382.4C107.559 369 103.559 353.5 103.559 335.9C103.559 318.5 106.559 302.2 112.559 287C118.559 271.6 127.159 258.1 138.359 246.5C149.759 234.9 163.359 225.9 179.159 219.5C195.159 212.9 213.059 209.6 232.859 209.6C251.259 209.6 267.259 212.4 280.859 218C294.659 223.6 305.659 231.6 313.859 242L292.259 260.3C285.259 252.1 276.659 246.1 266.459 242.3C256.459 238.3 244.859 236.3 231.659 236.3C216.659 236.3 203.159 238.9 191.159 244.1C179.159 249.1 168.859 256.1 160.259 265.1C151.659 273.9 145.059 284.3 140.459 296.3C135.859 308.1 133.559 320.7 133.559 334.1C133.559 346.7 136.259 357.8 141.659 367.4C147.259 376.8 155.459 384.2 166.259 389.6C177.259 395 190.859 397.7 207.059 397.7C218.859 397.7 229.759 395.7 239.759 391.7C249.959 387.7 259.559 381.9 268.559 374.3L280.259 398.3C270.059 406.5 258.259 412.9 244.859 417.5C231.659 422.1 217.959 424.4 203.759 424.4ZM252.659 393.8L267.959 315.8H296.759L280.259 398.3L252.659 393.8ZM403.397 423.8C388.197 423.8 374.997 421 363.797 415.4C352.797 409.6 344.197 401.6 337.997 391.4C331.797 381 328.697 368.9 328.697 355.1C328.697 337.1 332.697 321.1 340.697 307.1C348.697 292.9 359.697 281.8 373.697 273.8C387.897 265.6 403.997 261.5 421.997 261.5C436.997 261.5 450.097 264.3 461.297 269.9C472.497 275.5 481.097 283.4 487.097 293.6C493.297 303.8 496.397 315.9 496.397 329.9C496.397 347.9 492.397 364 484.397 378.2C476.397 392.2 465.397 403.3 451.397 411.5C437.597 419.7 421.597 423.8 403.397 423.8ZM405.197 398.6C417.197 398.6 427.897 395.7 437.297 389.9C446.697 384.1 453.997 376.2 459.197 366.2C464.597 356 467.297 344.4 467.297 331.4C467.297 317.4 463.197 306.5 454.997 298.7C446.797 290.7 435.097 286.7 419.897 286.7C408.097 286.7 397.497 289.6 388.097 295.4C378.697 301 371.297 308.9 365.897 319.1C360.497 329.1 357.797 340.7 357.797 353.9C357.797 367.7 361.897 378.6 370.097 386.6C378.297 394.6 389.997 398.6 405.197 398.6ZM593.827 423.8C578.627 423.8 565.427 421 554.227 415.4C543.227 409.6 534.627 401.6 528.427 391.4C522.227 381 519.127 368.9 519.127 355.1C519.127 337.1 523.127 321.1 531.127 307.1C539.127 292.9 550.127 281.8 564.127 273.8C578.327 265.6 594.427 261.5 612.427 261.5C627.427 261.5 640.527 264.3 651.727 269.9C662.927 275.5 671.527 283.4 677.527 293.6C683.727 303.8 686.827 315.9 686.827 329.9C686.827 347.9 682.827 364 674.827 378.2C666.827 392.2 655.827 403.3 641.827 411.5C628.027 419.7 612.027 423.8 593.827 423.8ZM595.627 398.6C607.627 398.6 618.327 395.7 627.727 389.9C637.127 384.1 644.427 376.2 649.627 366.2C655.027 356 657.727 344.4 657.727 331.4C657.727 317.4 653.627 306.5 645.427 298.7C637.227 290.7 625.527 286.7 610.327 286.7C598.527 286.7 587.927 289.6 578.527 295.4C569.127 301 561.727 308.9 556.327 319.1C550.927 329.1 548.227 340.7 548.227 353.9C548.227 367.7 552.327 378.6 560.527 386.6C568.727 394.6 580.427 398.6 595.627 398.6ZM771.056 482C756.056 482 742.356 480 729.956 476C717.556 472.2 707.056 466.7 698.456 459.5L714.356 437.3C720.556 443.1 728.756 447.7 738.956 451.1C749.356 454.7 760.756 456.5 773.156 456.5C791.956 456.5 806.356 452.2 816.356 443.6C826.356 435.2 833.056 422.3 836.456 404.9L843.956 368L852.956 338.3L857.456 306.5L866.156 263H893.456L866.156 400.4C860.356 429.2 849.656 450 834.056 462.8C818.456 475.6 797.456 482 771.056 482ZM781.256 415.4C767.456 415.4 755.156 412.8 744.356 407.6C733.756 402.4 725.456 395 719.456 385.4C713.456 375.6 710.456 364 710.456 350.6C710.456 337.8 712.656 326.1 717.056 315.5C721.656 304.7 727.956 295.3 735.956 287.3C743.956 279.1 753.456 272.8 764.456 268.4C775.656 263.8 787.856 261.5 801.056 261.5C813.056 261.5 823.956 263.6 833.756 267.8C843.756 272 851.656 278.5 857.456 287.3C863.456 295.9 866.456 307.1 866.456 320.9C866.656 338.5 863.356 354.5 856.556 368.9C849.756 383.1 839.956 394.4 827.156 402.8C814.556 411.2 799.256 415.4 781.256 415.4ZM786.956 390.2C799.156 390.2 809.856 387.5 819.056 382.1C828.456 376.7 835.856 369.3 841.256 359.9C846.656 350.5 849.356 339.8 849.356 327.8C849.356 315 845.156 305 836.756 297.8C828.556 290.4 816.956 286.7 801.956 286.7C789.756 286.7 778.956 289.4 769.556 294.8C760.356 300 753.056 307.3 747.656 316.7C742.256 326.1 739.556 336.8 739.556 348.8C739.556 361.8 743.756 372 752.156 379.4C760.556 386.6 772.156 390.2 786.956 390.2ZM916.985 422L961.385 199.4H990.185L945.785 422H916.985ZM1076.67 423.8C1061.07 423.8 1047.57 421 1036.17 415.4C1024.77 409.6 1015.97 401.6 1009.77 391.4C1003.57 381 1000.47 368.8 1000.47 354.8C1000.47 336.8 1004.37 320.8 1012.17 306.8C1019.97 292.8 1030.57 281.8 1043.97 273.8C1057.57 265.6 1072.97 261.5 1090.17 261.5C1104.57 261.5 1117.07 264.3 1127.67 269.9C1138.27 275.3 1146.47 283.1 1152.27 293.3C1158.27 303.5 1161.27 315.8 1161.27 330.2C1161.27 333.8 1161.07 337.5 1160.67 341.3C1160.27 344.9 1159.77 348.3 1159.17 351.5H1021.47L1025.07 330.5H1145.37L1133.67 337.7C1135.47 326.5 1134.67 317.1 1131.27 309.5C1127.87 301.7 1122.47 295.8 1115.07 291.8C1107.87 287.6 1099.17 285.5 1088.97 285.5C1076.97 285.5 1066.37 288.4 1057.17 294.2C1048.17 299.8 1041.17 307.7 1036.17 317.9C1031.17 327.9 1028.67 339.7 1028.67 353.3C1028.67 367.7 1032.77 378.9 1040.97 386.9C1049.37 394.7 1062.07 398.6 1079.07 398.6C1089.07 398.6 1098.37 397 1106.97 393.8C1115.57 390.4 1122.67 385.9 1128.27 380.3L1140.57 401C1132.97 408.4 1123.47 414.1 1112.07 418.1C1100.67 421.9 1088.87 423.8 1076.67 423.8Z" fill="white"/>
<path d="M1184.77 422L1226.77 212H1308.37C1333.77 212 1353.37 217.6 1367.17 228.8C1381.17 239.8 1388.17 255.3 1388.17 275.3C1388.17 292.9 1384.07 308.1 1375.87 320.9C1367.87 333.5 1356.37 343.3 1341.37 350.3C1326.37 357.1 1308.57 360.5 1287.97 360.5H1219.57L1239.67 342.8L1224.07 422H1184.77ZM1322.77 422L1279.87 345.8H1321.27L1364.17 422H1322.77ZM1238.77 347.3L1225.57 328.4H1289.17C1308.17 328.4 1322.87 324.2 1333.27 315.8C1343.67 307.4 1348.87 295.1 1348.87 278.9C1348.87 267.5 1344.97 259 1337.17 253.4C1329.57 247.8 1318.57 245 1304.17 245H1242.97L1263.37 225.5L1238.77 347.3Z" fill="#EA4335"/>
<path d="M1472.61 424.1C1459.61 424.1 1447.71 421.3 1436.91 415.7C1426.31 410.1 1417.81 402.1 1411.41 391.7C1405.21 381.1 1402.11 368.4 1402.11 353.6C1402.11 340 1404.31 327.5 1408.71 316.1C1413.31 304.7 1419.71 294.8 1427.91 286.4C1436.11 278 1445.61 271.5 1456.41 266.9C1467.41 262.3 1479.41 260 1492.41 260C1505.81 260 1517.31 262.4 1526.91 267.2C1536.71 272 1544.11 279.3 1549.11 289.1C1554.11 298.7 1556.41 310.7 1556.01 325.1C1555.61 344.9 1552.01 362.3 1545.21 377.3C1538.41 392.1 1528.91 403.6 1516.71 411.8C1504.51 420 1489.81 424.1 1472.61 424.1ZM1482.21 392C1493.01 392 1502.51 389.5 1510.71 384.5C1518.91 379.3 1525.41 372.2 1530.21 363.2C1535.01 354.2 1537.41 343.8 1537.41 332C1537.41 319.6 1533.71 309.8 1526.31 302.6C1518.91 295.4 1508.51 291.8 1495.11 291.8C1484.51 291.8 1475.01 294.4 1466.61 299.6C1458.41 304.6 1451.91 311.6 1447.11 320.6C1442.31 329.6 1439.91 340 1439.91 351.8C1439.91 364.2 1443.61 374 1451.01 381.2C1458.41 388.4 1468.81 392 1482.21 392ZM1521.51 422L1528.71 385.4L1538.91 342.8L1544.01 299.9L1551.51 261.8H1589.01L1557.21 422H1521.51ZM1850.64 385.1L1858.74 338.9L1955.04 261.8H2006.04L1916.04 334.4L1895.94 349.1L1850.64 385.1ZM1811.64 422L1856.04 199.4H1893.54L1849.14 422H1811.64ZM1934.04 422L1889.34 349.7L1915.14 320.9L1977.54 422H1934.04Z" fill="#FBBC05"/>
<path d="M1725.37 260C1739.17 260 1750.87 262.8 1760.47 268.4C1770.07 274 1776.77 282.3 1780.57 293.3C1784.57 304.1 1784.97 317.4 1781.77 333.2L1764.07 422H1726.57L1743.97 334.1C1746.57 321.1 1745.37 311 1740.37 303.8C1735.37 296.4 1726.27 292.7 1713.07 292.7C1699.27 292.7 1687.87 296.5 1678.87 304.1C1669.87 311.7 1663.77 323.3 1660.57 338.9L1643.77 422H1606.27L1638.07 261.8H1673.77L1664.77 307.4L1658.77 293C1666.37 281.6 1675.87 273.3 1687.27 268.1C1698.87 262.7 1711.57 260 1725.37 260Z" fill="#35D15F"/>
<path fill-rule="evenodd" clip-rule="evenodd" d="M190 139C85.0659 139 0 224.066 0 329C0 433.934 85.0659 519 190 519H1195.75L1167.21 498.259H1214.79L1229.5 453L1244.21 498.259H1291.79L1263.25 519H1363.27L1335.16 498.259H1382.02L1396.5 453L1410.98 498.259H1457.84L1429.73 519H1529.27L1501.16 498.259H1548.02L1562.5 453L1576.98 498.259H1623.84L1595.73 519H1695.27L1667.16 498.259H1714.02L1728.5 453L1742.98 498.259H1789.84L1761.73 519H1861.75L1833.21 498.259H1880.79L1895.5 453L1910.21 498.259H1957.79L1939.93 511.237C2018.6 487.992 2076 415.2 2076 329C2076 224.066 1990.93 139 1886 139H190Z" fill="#4285F4"/>
<path d="M203.759 424.4C182.959 424.4 165.059 420.7 150.059 413.3C135.259 405.9 123.759 395.6 115.559 382.4C107.559 369 103.559 353.5 103.559 335.9C103.559 318.5 106.559 302.2 112.559 287C118.559 271.6 127.159 258.1 138.359 246.5C149.759 234.9 163.359 225.9 179.159 219.5C195.159 212.9 213.059 209.6 232.859 209.6C251.259 209.6 267.259 212.4 280.859 218C294.659 223.6 305.659 231.6 313.859 242L292.259 260.3C285.259 252.1 276.659 246.1 266.459 242.3C256.459 238.3 244.859 236.3 231.659 236.3C216.659 236.3 203.159 238.9 191.159 244.1C179.159 249.1 168.859 256.1 160.259 265.1C151.659 273.9 145.059 284.3 140.459 296.3C135.859 308.1 133.559 320.7 133.559 334.1C133.559 346.7 136.259 357.8 141.659 367.4C147.259 376.8 155.459 384.2 166.259 389.6C177.259 395 190.859 397.7 207.059 397.7C218.859 397.7 229.759 395.7 239.759 391.7C249.959 387.7 259.559 381.9 268.559 374.3L280.259 398.3C270.059 406.5 258.259 412.9 244.859 417.5C231.659 422.1 217.959 424.4 203.759 424.4ZM252.659 393.8L267.959 315.8H296.759L280.259 398.3L252.659 393.8ZM403.397 423.8C388.197 423.8 374.997 421 363.797 415.4C352.797 409.6 344.197 401.6 337.997 391.4C331.797 381 328.697 368.9 328.697 355.1C328.697 337.1 332.697 321.1 340.697 307.1C348.697 292.9 359.697 281.8 373.697 273.8C387.897 265.6 403.997 261.5 421.997 261.5C436.997 261.5 450.097 264.3 461.297 269.9C472.497 275.5 481.097 283.4 487.097 293.6C493.297 303.8 496.397 315.9 496.397 329.9C496.397 347.9 492.397 364 484.397 378.2C476.397 392.2 465.397 403.3 451.397 411.5C437.597 419.7 421.597 423.8 403.397 423.8ZM405.197 398.6C417.197 398.6 427.897 395.7 437.297 389.9C446.697 384.1 453.997 376.2 459.197 366.2C464.597 356 467.297 344.4 467.297 331.4C467.297 317.4 463.197 306.5 454.997 298.7C446.797 290.7 435.097 286.7 419.897 286.7C408.097 286.7 397.497 289.6 388.097 295.4C378.697 301 371.297 308.9 365.897 319.1C360.497 329.1 357.797 340.7 357.797 353.9C357.797 367.7 361.897 378.6 370.097 386.6C378.297 394.6 389.997 398.6 405.197 398.6ZM593.827 423.8C578.627 423.8 565.427 421 554.227 415.4C543.227 409.6 534.627 401.6 528.427 391.4C522.227 381 519.127 368.9 519.127 355.1C519.127 337.1 523.127 321.1 531.127 307.1C539.127 292.9 550.127 281.8 564.127 273.8C578.327 265.6 594.427 261.5 612.427 261.5C627.427 261.5 640.527 264.3 651.727 269.9C662.927 275.5 671.527 283.4 677.527 293.6C683.727 303.8 686.827 315.9 686.827 329.9C686.827 347.9 682.827 364 674.827 378.2C666.827 392.2 655.827 403.3 641.827 411.5C628.027 419.7 612.027 423.8 593.827 423.8ZM595.627 398.6C607.627 398.6 618.327 395.7 627.727 389.9C637.127 384.1 644.427 376.2 649.627 366.2C655.027 356 657.727 344.4 657.727 331.4C657.727 317.4 653.627 306.5 645.427 298.7C637.227 290.7 625.527 286.7 610.327 286.7C598.527 286.7 587.927 289.6 578.527 295.4C569.127 301 561.727 308.9 556.327 319.1C550.927 329.1 548.227 340.7 548.227 353.9C548.227 367.7 552.327 378.6 560.527 386.6C568.727 394.6 580.427 398.6 595.627 398.6ZM771.056 482C756.056 482 742.356 480 729.956 476C717.556 472.2 707.056 466.7 698.456 459.5L714.356 437.3C720.556 443.1 728.756 447.7 738.956 451.1C749.356 454.7 760.756 456.5 773.156 456.5C791.956 456.5 806.356 452.2 816.356 443.6C826.356 435.2 833.056 422.3 836.456 404.9L843.956 368L852.956 338.3L857.456 306.5L866.156 263H893.456L866.156 400.4C860.356 429.2 849.656 450 834.056 462.8C818.456 475.6 797.456 482 771.056 482ZM781.256 415.4C767.456 415.4 755.156 412.8 744.356 407.6C733.756 402.4 725.456 395 719.456 385.4C713.456 375.6 710.456 364 710.456 350.6C710.456 337.8 712.656 326.1 717.056 315.5C721.656 304.7 727.956 295.3 735.956 287.3C743.956 279.1 753.456 272.8 764.456 268.4C775.656 263.8 787.856 261.5 801.056 261.5C813.056 261.5 823.956 263.6 833.756 267.8C843.756 272 851.656 278.5 857.456 287.3C863.456 295.9 866.456 307.1 866.456 320.9C866.656 338.5 863.356 354.5 856.556 368.9C849.756 383.1 839.956 394.4 827.156 402.8C814.556 411.2 799.256 415.4 781.256 415.4ZM786.956 390.2C799.156 390.2 809.856 387.5 819.056 382.1C828.456 376.7 835.856 369.3 841.256 359.9C846.656 350.5 849.356 339.8 849.356 327.8C849.356 315 845.156 305 836.756 297.8C828.556 290.4 816.956 286.7 801.956 286.7C789.756 286.7 778.956 289.4 769.556 294.8C760.356 300 753.056 307.3 747.656 316.7C742.256 326.1 739.556 336.8 739.556 348.8C739.556 361.8 743.756 372 752.156 379.4C760.556 386.6 772.156 390.2 786.956 390.2ZM916.985 422L961.385 199.4H990.185L945.785 422H916.985ZM1076.67 423.8C1061.07 423.8 1047.57 421 1036.17 415.4C1024.77 409.6 1015.97 401.6 1009.77 391.4C1003.57 381 1000.47 368.8 1000.47 354.8C1000.47 336.8 1004.37 320.8 1012.17 306.8C1019.97 292.8 1030.57 281.8 1043.97 273.8C1057.57 265.6 1072.97 261.5 1090.17 261.5C1104.57 261.5 1117.07 264.3 1127.67 269.9C1138.27 275.3 1146.47 283.1 1152.27 293.3C1158.27 303.5 1161.27 315.8 1161.27 330.2C1161.27 333.8 1161.07 337.5 1160.67 341.3C1160.27 344.9 1159.77 348.3 1159.17 351.5H1021.47L1025.07 330.5H1145.37L1133.67 337.7C1135.47 326.5 1134.67 317.1 1131.27 309.5C1127.87 301.7 1122.47 295.8 1115.07 291.8C1107.87 287.6 1099.17 285.5 1088.97 285.5C1076.97 285.5 1066.37 288.4 1057.17 294.2C1048.17 299.8 1041.17 307.7 1036.17 317.9C1031.17 327.9 1028.67 339.7 1028.67 353.3C1028.67 367.7 1032.77 378.9 1040.97 386.9C1049.37 394.7 1062.07 398.6 1079.07 398.6C1089.07 398.6 1098.37 397 1106.97 393.8C1115.57 390.4 1122.67 385.9 1128.27 380.3L1140.57 401C1132.97 408.4 1123.47 414.1 1112.07 418.1C1100.67 421.9 1088.87 423.8 1076.67 423.8Z" fill="white"/>
<path d="M1184.77 422L1226.77 212H1308.37C1333.77 212 1353.37 217.6 1367.17 228.8C1381.17 239.8 1388.17 255.3 1388.17 275.3C1388.17 292.9 1384.07 308.1 1375.87 320.9C1367.87 333.5 1356.37 343.3 1341.37 350.3C1326.37 357.1 1308.57 360.5 1287.97 360.5H1219.57L1239.67 342.8L1224.07 422H1184.77ZM1322.77 422L1279.87 345.8H1321.27L1364.17 422H1322.77ZM1238.77 347.3L1225.57 328.4H1289.17C1308.17 328.4 1322.87 324.2 1333.27 315.8C1343.67 307.4 1348.87 295.1 1348.87 278.9C1348.87 267.5 1344.97 259 1337.17 253.4C1329.57 247.8 1318.57 245 1304.17 245H1242.97L1263.37 225.5L1238.77 347.3Z" fill="#EA4335"/>
<path d="M1472.61 424.1C1459.61 424.1 1447.71 421.3 1436.91 415.7C1426.31 410.1 1417.81 402.1 1411.41 391.7C1405.21 381.1 1402.11 368.4 1402.11 353.6C1402.11 340 1404.31 327.5 1408.71 316.1C1413.31 304.7 1419.71 294.8 1427.91 286.4C1436.11 278 1445.61 271.5 1456.41 266.9C1467.41 262.3 1479.41 260 1492.41 260C1505.81 260 1517.31 262.4 1526.91 267.2C1536.71 272 1544.11 279.3 1549.11 289.1C1554.11 298.7 1556.41 310.7 1556.01 325.1C1555.61 344.9 1552.01 362.3 1545.21 377.3C1538.41 392.1 1528.91 403.6 1516.71 411.8C1504.51 420 1489.81 424.1 1472.61 424.1ZM1482.21 392C1493.01 392 1502.51 389.5 1510.71 384.5C1518.91 379.3 1525.41 372.2 1530.21 363.2C1535.01 354.2 1537.41 343.8 1537.41 332C1537.41 319.6 1533.71 309.8 1526.31 302.6C1518.91 295.4 1508.51 291.8 1495.11 291.8C1484.51 291.8 1475.01 294.4 1466.61 299.6C1458.41 304.6 1451.91 311.6 1447.11 320.6C1442.31 329.6 1439.91 340 1439.91 351.8C1439.91 364.2 1443.61 374 1451.01 381.2C1458.41 388.4 1468.81 392 1482.21 392ZM1521.51 422L1528.71 385.4L1538.91 342.8L1544.01 299.9L1551.51 261.8H1589.01L1557.21 422H1521.51ZM1850.64 385.1L1858.74 338.9L1955.04 261.8H2006.04L1916.04 334.4L1895.94 349.1L1850.64 385.1ZM1811.64 422L1856.04 199.4H1893.54L1849.14 422H1811.64ZM1934.04 422L1889.34 349.7L1915.14 320.9L1977.54 422H1934.04Z" fill="#FFC51D"/>
<path d="M1725.37 260C1739.17 260 1750.87 262.8 1760.47 268.4C1770.07 274 1776.77 282.3 1780.57 293.3C1784.57 304.1 1784.97 317.4 1781.77 333.2L1764.07 422H1726.57L1743.97 334.1C1746.57 321.1 1745.37 311 1740.37 303.8C1735.37 296.4 1726.27 292.7 1713.07 292.7C1699.27 292.7 1687.87 296.5 1678.87 304.1C1669.87 311.7 1663.77 323.3 1660.57 338.9L1643.77 422H1606.27L1638.07 261.8H1673.77L1664.77 307.4L1658.77 293C1666.37 281.6 1675.87 273.3 1687.27 268.1C1698.87 262.7 1711.57 260 1725.37 260Z" fill="#35D15F"/>
<path d="M325.256 172.694C331.884 167.539 512.679 259.226 760.858 171.222C760.858 171.222 823.823 223.14 542.873 224.981C542.873 224.981 254.19 227.559 325.256 172.694Z" fill="white"/>
<path d="M669.066 211.044V43.6338C669.066 19.7705 645.365 -2.67844 615 0.312802L540.752 7.7906L466.503 0.312802C439.197 -2.17978 412.066 19.7705 412.066 43.6338V211.044H669.066Z" fill="white"/>
<path d="M541 209.118C412.132 209.118 329.497 168.601 325.128 171.946C254.87 227.333 540.272 224.731 540.272 224.731C540.515 224.731 540.757 224.731 541 224.731V209.118Z" fill="#F3F3F3"/>
<path fill-rule="evenodd" clip-rule="evenodd" d="M541 7.64094L540.685 7.67219L466.437 0.193676C439.13 -2.29851 412 19.6517 412 43.515V210.925H541V7.64094Z" fill="#F3F3F3"/>
<path d="M669 196H412V169H669V196Z" fill="black"/>
</svg>
